<svg xmlns="http://www.w3.org/2000/svg" viewBox="0 0 256 256">
  <path d="M128 20L40 60v60c0 55 40 100 88 110 48-10 88-55 88-110V60L128 20z" fill="#1E40AF"/>
  <path d="M128 35L55 70v50c0 48 35 88 73 97 38-9 73-49 73-97V70L128 35z" fill="#0D9488"/>
  <circle cx="80" cy="100" r="4" fill="#1E40AF"/>
  <circle cx="128" cy="100" r="4" fill="#1E40AF"/>
  <circle cx="176" cy="100" r="4" fill="#1E40AF"/>
  <circle cx="104" cy="130" r="4" fill="#1E40AF"/>
  <circle cx="152" cy="130" r="4" fill="#1E40AF"/>
  <circle cx="128" cy="160" r="4" fill="#1E40AF"/>
  <line x1="80" y1="100" x2="104" y2="130" stroke="#1E40AF" stroke-width="2"/>
  <line x1="128" y1="100" x2="104" y2="130" stroke="#1E40AF" stroke-width="2"/>
  <line x1="128" y1="100" x2="152" y2="130" stroke="#1E40AF" stroke-width="2"/>
  <line x1="176" y1="100" x2="152" y2="130" stroke="#1E40AF" stroke-width="2"/>
  <line x1="104" y1="130" x2="128" y2="160" stroke="#1E40AF" stroke-width="2"/>
  <line x1="152" y1="130" x2="128" y2="160" stroke="#1E40AF" stroke-width="2"/>
  <rect x="75" y="95" width="10" height="10" fill="#1E40AF"/>
  <rect x="123" y="95" width="10" height="10" fill="#1E40AF"/>
  <rect x="171" y="95" width="10" height="10" fill="#1E40AF"/>
</svg>